<mxfile host="65bd71144e">
    <diagram id="YMVY663nhCIzSdIhk0mH" name="Page-1">
        <mxGraphModel dx="1067" dy="802" grid="1" gridSize="10" guides="1" tooltips="1" connect="1" arrows="1" fold="1" page="1" pageScale="1" pageWidth="1169" pageHeight="827" math="0" shadow="0">
            <root>
                <mxCell id="0"/>
                <mxCell id="1" parent="0"/>
                <mxCell id="2" value="" style="aspect=fixed;perimeter=ellipsePerimeter;html=1;align=center;shadow=0;dashed=0;spacingTop=3;image;image=img/lib/active_directory/internet_globe.svg;" vertex="1" parent="1">
                    <mxGeometry x="80" y="81" width="40" height="40" as="geometry"/>
                </mxCell>
                <mxCell id="3" value="&lt;font color=&quot;#ffffff&quot;&gt;Fiber Modem&lt;br&gt;&lt;/font&gt;" style="fontColor=#0066CC;verticalAlign=top;verticalLabelPosition=bottom;labelPosition=center;align=center;html=1;outlineConnect=0;fillColor=#CCCCCC;strokeColor=#6881B3;gradientColor=none;gradientDirection=north;strokeWidth=2;shape=mxgraph.networks.modem;" vertex="1" parent="1">
                    <mxGeometry x="243" y="91" width="50" height="20" as="geometry"/>
                </mxCell>
                <mxCell id="4" value="&lt;font color=&quot;#ffffff&quot;&gt;Tenda Router&lt;/font&gt;" style="fontColor=#0066CC;verticalAlign=top;verticalLabelPosition=bottom;labelPosition=center;align=center;html=1;outlineConnect=0;fillColor=#CCCCCC;strokeColor=#6881B3;gradientColor=none;gradientDirection=north;strokeWidth=2;shape=mxgraph.networks.wireless_modem;" vertex="1" parent="1">
                    <mxGeometry x="440" y="51" width="50" height="60" as="geometry"/>
                </mxCell>
                <mxCell id="6" value="" style="image;html=1;image=img/lib/clip_art/networking/Switch_128x128.png;fontColor=#FFFFFF;" vertex="1" parent="1">
                    <mxGeometry x="440" y="271" width="80" height="80" as="geometry"/>
                </mxCell>
                <mxCell id="7" value="D-Link Router" style="image;html=1;image=img/lib/clip_art/networking/Wireless_Router_128x128.png;fontColor=#FFFFFF;" vertex="1" parent="1">
                    <mxGeometry x="720" y="20" width="80" height="80" as="geometry"/>
                </mxCell>
                <mxCell id="8" value="Macbook M1" style="image;html=1;image=img/lib/clip_art/computers/MacBook_128x128.png;fontColor=#FFFFFF;" vertex="1" parent="1">
                    <mxGeometry x="243" y="441" width="80" height="80" as="geometry"/>
                </mxCell>
                <mxCell id="9" value="Proxmox Server" style="image;html=1;image=img/lib/clip_art/computers/Server_Tower_128x128.png;fontColor=#FFFFFF;" vertex="1" parent="1">
                    <mxGeometry x="435" y="441" width="80" height="80" as="geometry"/>
                </mxCell>
                <mxCell id="11" value="Phone 1" style="verticalLabelPosition=bottom;html=1;verticalAlign=top;align=center;strokeColor=none;fillColor=#00BEF2;shape=mxgraph.azure.mobile;pointerEvents=1;fontColor=#FFFFFF;" vertex="1" parent="1">
                    <mxGeometry x="720" y="240" width="35" height="50" as="geometry"/>
                </mxCell>
                <mxCell id="12" value="Phone 2" style="verticalLabelPosition=bottom;html=1;verticalAlign=top;align=center;strokeColor=none;fillColor=#00BEF2;shape=mxgraph.azure.mobile;pointerEvents=1;fontColor=#FFFFFF;" vertex="1" parent="1">
                    <mxGeometry x="840" y="240" width="35" height="50" as="geometry"/>
                </mxCell>
                <mxCell id="13" value="Phone 3" style="verticalLabelPosition=bottom;html=1;verticalAlign=top;align=center;strokeColor=none;fillColor=#00BEF2;shape=mxgraph.azure.mobile;pointerEvents=1;fontColor=#FFFFFF;" vertex="1" parent="1">
                    <mxGeometry x="960" y="240" width="35" height="50" as="geometry"/>
                </mxCell>
                <mxCell id="14" value="" style="endArrow=classic;html=1;fontColor=#FFFFFF;exitX=1;exitY=0.5;exitDx=0;exitDy=0;" edge="1" parent="1" source="2" target="3">
                    <mxGeometry width="50" height="50" relative="1" as="geometry">
                        <mxPoint x="40" y="381" as="sourcePoint"/>
                        <mxPoint x="90" y="331" as="targetPoint"/>
                    </mxGeometry>
                </mxCell>
                <mxCell id="15" value="" style="endArrow=classic;html=1;fontColor=#FFFFFF;" edge="1" parent="1" source="3" target="4">
                    <mxGeometry width="50" height="50" relative="1" as="geometry">
                        <mxPoint x="270" y="190" as="sourcePoint"/>
                        <mxPoint x="430" y="101" as="targetPoint"/>
                    </mxGeometry>
                </mxCell>
                <mxCell id="16" value="" style="endArrow=classic;html=1;fontColor=#FFFFFF;entryX=0;entryY=0.75;entryDx=0;entryDy=0;" edge="1" parent="1" source="4" target="7">
                    <mxGeometry width="50" height="50" relative="1" as="geometry">
                        <mxPoint x="540" y="160" as="sourcePoint"/>
                        <mxPoint x="590" y="110" as="targetPoint"/>
                    </mxGeometry>
                </mxCell>
                <mxCell id="17" value="" style="endArrow=classic;html=1;fontColor=#FFFFFF;exitX=0.25;exitY=1;exitDx=0;exitDy=0;entryX=0.5;entryY=0;entryDx=0;entryDy=0;entryPerimeter=0;" edge="1" parent="1" source="7" target="11">
                    <mxGeometry width="50" height="50" relative="1" as="geometry">
                        <mxPoint x="560" y="380" as="sourcePoint"/>
                        <mxPoint x="610" y="330" as="targetPoint"/>
                    </mxGeometry>
                </mxCell>
                <mxCell id="18" value="" style="endArrow=classic;html=1;fontColor=#FFFFFF;exitX=0.5;exitY=1;exitDx=0;exitDy=0;entryX=0.5;entryY=0;entryDx=0;entryDy=0;entryPerimeter=0;" edge="1" parent="1" source="7" target="12">
                    <mxGeometry width="50" height="50" relative="1" as="geometry">
                        <mxPoint x="560" y="380" as="sourcePoint"/>
                        <mxPoint x="610" y="330" as="targetPoint"/>
                    </mxGeometry>
                </mxCell>
                <mxCell id="19" value="" style="endArrow=classic;html=1;fontColor=#FFFFFF;exitX=0.75;exitY=1;exitDx=0;exitDy=0;entryX=0.5;entryY=0;entryDx=0;entryDy=0;entryPerimeter=0;" edge="1" parent="1" source="7" target="13">
                    <mxGeometry width="50" height="50" relative="1" as="geometry">
                        <mxPoint x="560" y="380" as="sourcePoint"/>
                        <mxPoint x="610" y="330" as="targetPoint"/>
                    </mxGeometry>
                </mxCell>
                <mxCell id="20" value="" style="endArrow=classic;html=1;fontColor=#FFFFFF;" edge="1" parent="1" source="4" target="6">
                    <mxGeometry width="50" height="50" relative="1" as="geometry">
                        <mxPoint x="560" y="380" as="sourcePoint"/>
                        <mxPoint x="610" y="330" as="targetPoint"/>
                    </mxGeometry>
                </mxCell>
                <mxCell id="21" value="" style="endArrow=classic;html=1;fontColor=#FFFFFF;exitX=0.5;exitY=1;exitDx=0;exitDy=0;entryX=0.5;entryY=0;entryDx=0;entryDy=0;" edge="1" parent="1" source="6" target="9">
                    <mxGeometry width="50" height="50" relative="1" as="geometry">
                        <mxPoint x="560" y="380" as="sourcePoint"/>
                        <mxPoint x="610" y="330" as="targetPoint"/>
                    </mxGeometry>
                </mxCell>
                <mxCell id="22" value="" style="endArrow=classic;html=1;fontColor=#FFFFFF;exitX=0.25;exitY=1;exitDx=0;exitDy=0;entryX=0.5;entryY=0;entryDx=0;entryDy=0;" edge="1" parent="1" source="6" target="8">
                    <mxGeometry width="50" height="50" relative="1" as="geometry">
                        <mxPoint x="560" y="380" as="sourcePoint"/>
                        <mxPoint x="610" y="330" as="targetPoint"/>
                    </mxGeometry>
                </mxCell>
            </root>
        </mxGraphModel>
    </diagram>
</mxfile>